# xmcd
#
# Track frame offsets:
#	150
#	14175
#	32367
#	45798
#	62221
#	76161
#	89960
#	108484
#	126784
#	141312
#	162305
#	176994
#	193459
#	210483
#
# Disc length: 3159 seconds
#
# Revision: 0
# Processed by: cddbd v1.5PL3 Copyright (c) Steve Scherf et al.
# Submitted via: dBpowerAMP V4.0
#
DISCID=cc0c550e
DTITLE=Dave Sheriff - All alone in Limburg
DYEAR=2004
DGENRE=Country
TTITLE0=My friend Jack (Daniel's)
TTITLE1=Take me for who I am
TTITLE2=Perfume and roses
TTITLE3=All alone in Limburg
TTITLE4=Keep it country
TTITLE5=Mama said
TTITLE6=Kristina's smile
TTITLE7=Song for the everyday man
TTITLE8=One of the best
TTITLE9=End in tears
TTITLE10=From where I stand
TTITLE11=You can do better than that
TTITLE12=Endlessley
TTITLE13=End in tears (duet with Doreen)
EXTD=Album recorded in Holland
EXTT0=
EXTT1=
EXTT2=
EXTT3=
EXTT4=
EXTT5=
EXTT6=
EXTT7=
EXTT8=
EXTT9=
EXTT10=
EXTT11=
EXTT12=
EXTT13=
PLAYORDER=
